# xmcd
#
# Track frame offsets:
#	150
#	23084
#	33772
#	49853
#	63481
#	101418
#	115961
#	126063
#	137903
#	151619
#	168209
#	185288
#	198591
#	211739
#
# Disc length: 3064 seconds
#
# Revision: 1
# Processed by: cddbd v1.5.2PL0 Copyright (c) Steve Scherf et al.
# Submitted via: audiograbber 1.83.01
#
DISCID=b30bf60e
DTITLE=Wolfgang Rieck - Der singende Mann
DYEAR=2016
DGENRE=Deutsch
TTITLE0=Un sei danzt
TTITLE1=Segelschiffe
TTITLE2=der Hollerbaum
TTITLE3=Der singende Mann
TTITLE4=Vergessene Helden
TTITLE5=Der bettler
TTITLE6=Glücklich
TTITLE7=liebe im Schnee 8
TTITLE8=Zum Neuen Jahr 9
TTITLE9=Der Verschüttete
TTITLE10=Schlaflied für Emilia1
TTITLE11=Liedchen
TTITLE12=Sonett för H. un W.13
TTITLE13=Still, min Hanne
EXTD=
EXTT0=
EXTT1=
EXTT2=
EXTT3=
EXTT4=
EXTT5=
EXTT6=
EXTT7=
EXTT8=
EXTT9=
EXTT10=
EXTT11=
EXTT12=
EXTT13=
PLAYORDER=
